<?xml version="1.0" encoding="utf-8"?><svg viewBox="0 0 190 43" xmlns="http://www.w3.org/2000/svg" xmlns:xlink="http://www.w3.org/1999/xlink"><style>:root>svg{display:none}:root>svg:target{display:block}</style><svg fill="none" viewBox="0 0 16 10" id="arrow-buttom" xmlns="http://www.w3.org/2000/svg"><path d="M7.113 9.23.325 2.009a1.23 1.23 0 0 1 0-1.664 1.06 1.06 0 0 1 1.563 0l6.007 6.392L13.902.345a1.06 1.06 0 0 1 1.563 0 1.23 1.23 0 0 1 0 1.663L8.677 9.231c-.216.23-.5.344-.782.344a1.07 1.07 0 0 1-.782-.344Z" fill="#E8AA31"/></svg><svg fill="none" viewBox="0 0 16 16" id="back" xmlns="http://www.w3.org/2000/svg"><path fill-rule="evenodd" clip-rule="evenodd" d="m3.345 8.833 5.244 5.244-1.178 1.179L.155 8 7.41.744l1.178 1.179-5.244 5.244H15.5v1.666H3.345Z" fill="#fff"/></svg><svg fill="none" viewBox="0 0 32 34" id="cart" xmlns="http://www.w3.org/2000/svg"><path fill-rule="evenodd" clip-rule="evenodd" d="M4.652 2.25H0V.75h4.652a2.75 2.75 0 0 1 2.716 2.317l.629 3.952h21.715a1.75 1.75 0 0 1 1.696 2.183l-1.901 7.434a3.75 3.75 0 0 1-3.633 2.821H9.977l.41 2.581a1.25 1.25 0 0 0 1.235 1.054h16.581v1.5H11.622a2.75 2.75 0 0 1-2.716-2.318l-3.02-18.97A1.25 1.25 0 0 0 4.653 2.25Zm5.086 15.707h16.136a2.25 2.25 0 0 0 2.18-1.692l1.9-7.434a.25.25 0 0 0-.242-.312H8.236l1.502 9.438ZM13.57 31.826c.748 0 1.449-.646 1.449-1.56 0-.915-.7-1.56-1.45-1.56-.748 0-1.449.645-1.449 1.56 0 .914.7 1.56 1.45 1.56Zm0 1.5c1.628 0 2.949-1.37 2.949-3.06s-1.32-3.06-2.95-3.06c-1.628 0-2.949 1.37-2.949 3.06s1.32 3.06 2.95 3.06ZM26.547 31.826c.748 0 1.449-.646 1.449-1.56 0-.915-.7-1.56-1.45-1.56-.748 0-1.449.645-1.449 1.56 0 .914.7 1.56 1.45 1.56Zm0 1.5c1.628 0 2.949-1.37 2.949-3.06s-1.32-3.06-2.95-3.06c-1.628 0-2.949 1.37-2.949 3.06s1.32 3.06 2.95 3.06Z" fill="#000"/></svg><svg fill="none" viewBox="0 0 26 25" id="compare" xmlns="http://www.w3.org/2000/svg"><path d="m25.956 12.527-.022.012-3.73-9.284h1.702a.553.553 0 0 0 0-1.105h-10.4V.553a.553.553 0 0 0-1.106 0v1.591H2.006a.553.553 0 0 0 0 1.105H3.78L.044 12.528a.553.553 0 0 0-.044.204 4.595 4.595 0 1 0 9.19 0 .553.553 0 0 0-.044-.204l-3.73-9.284H12.4V20.33c-2.635.2-4.697 1.802-4.697 3.741 0 .306.248.553.553.553h9.394a.553.553 0 0 0 .553-.553c0-1.94-2.061-3.542-4.697-3.74V3.243h7.056l-3.708 9.284a.554.554 0 0 0-.044.204 4.595 4.595 0 1 0 9.19 0 .554.554 0 0 0-.044-.204ZM4.592 16.23a3.493 3.493 0 0 1-3.443-2.934h6.864a3.493 3.493 0 0 1-3.42 2.934Zm3.222-4.04H1.382l3.221-8.018 3.21 8.018Zm9.184 11.329H8.902c.41-1.188 2.095-2.106 4.046-2.106 1.95 0 3.641.918 4.05 2.106ZM21.38 4.178l3.21 8.012H18.16l3.221-8.012Zm0 12.052v.005a3.492 3.492 0 0 1-3.42-2.94h6.863a3.493 3.493 0 0 1-3.443 2.935Z" fill="#000"/></svg><svg fill="none" viewBox="0 0 28 27" id="favorite" xmlns="http://www.w3.org/2000/svg"><path d="M20.1 0A7.917 7.917 0 0 0 14 2.872 7.917 7.917 0 0 0 7.9 0C3.544 0 0 3.525 0 7.857c0 3.392 2.034 7.316 6.045 11.663 3.087 3.345 6.445 5.934 7.4 6.649l.555.414.554-.414c.956-.715 4.314-3.304 7.4-6.649C25.967 15.174 28 11.25 28 7.857 28 3.525 24.456 0 20.1 0Zm.495 18.278c-2.54 2.751-5.27 4.975-6.595 6-1.325-1.025-4.056-3.249-6.595-6-3.637-3.94-5.559-7.544-5.559-10.42 0-3.32 2.716-6.022 6.054-6.022a6.063 6.063 0 0 1 5.293 3.108L14 6.392l.807-1.448A6.063 6.063 0 0 1 20.1 1.836c3.338 0 6.054 2.701 6.054 6.021 0 2.877-1.922 6.48-5.56 10.421Z" fill="#000"/></svg><svg fill="none" viewBox="0 0 16 16" id="footer-clock" xmlns="http://www.w3.org/2000/svg"><path fill-rule="evenodd" clip-rule="evenodd" d="M8 15A7 7 0 1 0 8 1a7 7 0 0 0 0 14Zm0 1A8 8 0 1 0 8 0a8 8 0 0 0 0 16Z" fill="#fff"/><path d="M8 4.5a.5.5 0 0 0-1 0v4a.5.5 0 0 0 1 0v-4Z" fill="#fff"/><path d="M7.5 8a.5.5 0 0 0 0 1h3a.5.5 0 0 0 0-1h-3Z" fill="#fff"/></svg><svg fill="none" viewBox="0 0 18 13" id="footer-email" xmlns="http://www.w3.org/2000/svg"><path fill-rule="evenodd" clip-rule="evenodd" d="M8.1 6.95.7 1.4l.6-.8 7.4 5.55a.5.5 0 0 0 .6 0L16.7.6l.6.8-7.4 5.55a1.5 1.5 0 0 1-1.8 0Z" fill="#fff"/><path fill-rule="evenodd" clip-rule="evenodd" d="M16 1H2a1 1 0 0 0-1 1v9a1 1 0 0 0 1 1h14a1 1 0 0 0 1-1V2a1 1 0 0 0-1-1ZM2 0a2 2 0 0 0-2 2v9a2 2 0 0 0 2 2h14a2 2 0 0 0 2-2V2a2 2 0 0 0-2-2H2Z" fill="#fff"/></svg><svg fill="none" viewBox="0 0 11 17" id="footer-location" xmlns="http://www.w3.org/2000/svg"><path d="M5.5 0C2.467 0 0 2.6 0 5.797c0 1.08.284 2.134.821 3.049l4.366 7.416a.454.454 0 0 0 .39.228h.003a.454.454 0 0 0 .39-.234l4.254-7.488A6.029 6.029 0 0 0 11 5.798C11 2.6 8.533 0 5.5 0Zm3.938 8.272-3.869 6.807L1.6 8.337a5.02 5.02 0 0 1-.69-2.54C.91 3.133 2.974.96 5.5.96c2.527 0 4.586 2.173 4.586 4.837 0 .874-.226 1.73-.648 2.475Z" fill="#fff"/><path d="M5.5 2.443a3.058 3.058 0 0 0-3.055 3.054A3.05 3.05 0 0 0 5.5 8.551c1.728 0 3.056-1.4 3.056-3.054A3.058 3.058 0 0 0 5.5 2.443Zm0 5.097a2.045 2.045 0 0 1-2.044-2.043A2.05 2.05 0 0 1 5.5 3.455c1.123 0 2.04.92 2.04 2.042A2.04 2.04 0 0 1 5.5 7.54Z" fill="#fff"/></svg><svg fill="none" viewBox="0 0 15 16" id="footer-phone" xmlns="http://www.w3.org/2000/svg"><path d="M14.614 11.68 12.75 9.71a1.271 1.271 0 0 0-1.865 0l-.848.895a.963.963 0 0 1-1.412 0L4.95 6.724a1.096 1.096 0 0 1 0-1.491l.847-.895c.512-.54.52-1.42 0-1.969L3.933.407A1.271 1.271 0 0 0 2.07.406l-.68.71c-1.853 1.958-1.853 5.143 0 7.1l5.822 6.148c1.858 1.962 4.866 1.962 6.724 0l.678-.716a1.449 1.449 0 0 0 0-1.968ZM2.69 1.063c.172-.18.45-.18.622 0l1.865 1.963a.482.482 0 0 1 0 .656l-.311.328L2.38 1.387l.31-.324Zm5.143 12.645-5.82-6.149C.577 6.045.498 3.668 1.77 2.054l2.477 2.615A2.061 2.061 0 0 0 4.33 7.38l3.674 3.882c.705.744 1.83.775 2.568.086l2.478 2.616c-1.524 1.34-3.771 1.269-5.216-.256Zm6.16-.716-.311.328-2.486-2.625.31-.328c.172-.18.45-.18.622 0l1.865 1.969a.483.483 0 0 1 0 .656Z" fill="#fff"/></svg><svg fill="none" viewBox="0 0 17 25" id="location" xmlns="http://www.w3.org/2000/svg"><path d="M8.5 0C3.813 0 0 3.85 0 8.584c0 1.6.439 3.16 1.269 4.514L8.016 24.08c.13.21.357.338.602.338h.006a.707.707 0 0 0 .602-.348L15.8 12.983A8.64 8.64 0 0 0 17 8.584C17 3.851 13.187 0 8.5 0Zm6.085 12.248-5.978 10.08-6.134-9.984a7.197 7.197 0 0 1-1.066-3.76c0-3.944 3.187-7.163 7.093-7.163s7.088 3.219 7.088 7.163a7.2 7.2 0 0 1-1.003 3.664Z" fill="#000"/><path d="M8.496 3.617c-2.603 0-4.722 2.029-4.722 4.522 0 2.477 2.084 4.522 4.722 4.522 2.671 0 4.723-2.072 4.723-4.522 0-2.493-2.119-4.522-4.723-4.522Zm0 7.547c-1.745 0-3.158-1.359-3.158-3.025 0-1.662 1.423-3.024 3.158-3.024 1.736 0 3.154 1.362 3.154 3.024 0 1.642-1.38 3.025-3.154 3.025Z" fill="#000"/></svg><svg fill="none" viewBox="0 0 190 43" id="logo" xmlns="http://www.w3.org/2000/svg"><path fill-rule="evenodd" clip-rule="evenodd" d="M95.918 38.354s1.126-.546 3.101-1.28c1.018.486 3.248 1.5 5.408 2.124 2.924.844 4.872.715 7.601.715 2.728 0 6.625-.455 6.625-.455s-.584-2.144-.649-3.703c-.065-1.559-.065-1.819-.065-1.819s-.585 2.21-.455 3.378c.13 1.17.13 1.56.13 1.56s-5.132.52-8.769.13c-3.638-.39-5.847-.78-7.406-1.3a62.705 62.705 0 0 0-2.241-.697 63.055 63.055 0 0 1 12.245-3.135c9.094-1.365 7.275-.91 7.275-.91s.195-.39 1.364-.52c1.17-.13 13.122-.714 16.825-.454 3.703.26 13.901.78 15.395 1.754 1.494.974 2.079 1.948 1.624 4.352-.454 2.403-1.364 4.742-2.208 4.222-.845-.52-3.703-2.728-6.431-3.118-2.728-.39-5.717-.325-6.951 0s-3.313 1.624-4.287 1.3c-.975-.325-2.923-2.144-4.482-1.495-1.559.65-1.624.845-2.339 1.754-.714.91-1.689 1.95-2.468.975-.78-.975-2.209-1.43-3.443-1.495-1.234-.064-2.339.325-2.664.65-.325.325-.779.974-.779.974s-2.014-.519-4.353-.26c-2.338.26-6.365.456-9.094-.064-2.728-.52-8.51-3.183-8.51-3.183Zm24.554.78s2.599-.456 3.573.259c.975.715 1.169 1.3 2.923-.13 1.754-1.43 2.858-2.469 4.807-1.43 1.949 1.04 2.859 1.69 4.742.715 1.884-.974 5.977-2.013 9.42-.584 3.442 1.429 6.106 3.703 6.625 2.273.52-1.429.78-2.988-1.883-3.572-2.664-.585-6.626-1.235-10.264-.65-3.638.585-4.287 2.273-5.781 1.819-1.495-.455-3.118-1.819-4.937-1.105-1.819.715-3.378 2.924-4.872 2.21-1.494-.715-2.534-1.365-3.443-.91-.91.454-.91 1.104-.91 1.104Z" fill="#1F1C21"/><path d="M1.522.343v9.66h.445c.034-.554.12-1.114.262-1.673a10.22 10.22 0 0 1 .537-1.627c.217-.514.468-.982.753-1.405.28-.416.588-.753.914-1.016.24-.2.548-.388.93-.57.383-.184.84-.332 1.371-.446.537-.12 1.148-.177 1.844-.183h7.262L.562 24.116l.069.206h22.095v-11.1h-.445a22.411 22.411 0 0 1-.189 1.914 15.474 15.474 0 0 1-.4 1.884 9.22 9.22 0 0 1-.673 1.701 5.33 5.33 0 0 1-1 1.353c-.496.463-1.021.8-1.57 1.017a6.283 6.283 0 0 1-1.655.41c-.548.063-1.073.086-1.57.08H7.687L22.897.548l-.17-.205H1.521Zm28.09 20.142c.005.28-.006.565-.04.862a3.044 3.044 0 0 1-.229.88 2.25 2.25 0 0 1-.588.793c-.257.211-.542.377-.868.486-.32.114-.65.194-.993.24-.343.045-.668.079-.982.097l-.582.034v.445h24.047V13.908h-.445l-.102 1.062a19.67 19.67 0 0 1-.235 1.696 7.09 7.09 0 0 1-.525 1.644c-.24.537-.594 1.028-1.056 1.49a4.882 4.882 0 0 1-.628.525c-.275.2-.622.395-1.05.583a7.46 7.46 0 0 1-1.542.48c-.6.125-1.296.188-2.09.193h-7.845V4.18c-.005-.2.006-.45.04-.748a3.64 3.64 0 0 1 .229-.925c.126-.32.32-.604.588-.862.245-.217.53-.377.856-.485a5.174 5.174 0 0 1 1.017-.24 13.2 13.2 0 0 1 .97-.097l.583-.034V.343H25.33v.445l.582.034c.303.017.628.052.977.097.342.046.679.126 1.01.24.325.108.611.268.856.485.268.258.468.543.588.863.12.32.2.628.229.924.034.297.045.548.04.748v16.306ZM62.017 0 54.55 18.019c-.251.588-.48 1.09-.685 1.501-.206.411-.383.754-.537 1.028-.154.268-.285.486-.388.657a7.735 7.735 0 0 1-.45.656 5.5 5.5 0 0 1-.72.77 4.725 4.725 0 0 1-1.034.698c-.4.205-.862.354-1.393.445l-.65.103v.445H60.99v-.445l-.856-.069a6.594 6.594 0 0 1-1.08-.171 4.329 4.329 0 0 1-1.084-.423 2.542 2.542 0 0 1-.85-.742 2.386 2.386 0 0 1-.383-.913 3.746 3.746 0 0 1-.057-1.08c.028-.364.108-.707.234-1.021l1.302-3.186h8.77l1.54 3.768c.092.211.166.44.235.69.068.258.102.503.108.749-.006.508-.103.913-.297 1.21a1.798 1.798 0 0 1-.73.674 2.212 2.212 0 0 1-.56.222c-.217.057-.48.11-.8.149-.319.04-.713.074-1.175.108l-.514.035v.445H78.22v-.445l-.548-.034a5.405 5.405 0 0 1-1.199-.206 5.612 5.612 0 0 1-1.085-.423 3.686 3.686 0 0 1-.833-.57 3.71 3.71 0 0 1-.577-.783 13.16 13.16 0 0 1-.628-1.29c-.228-.53-.514-1.21-.85-2.038L64.93 0h-2.912Zm4.111 13.874h-7.057l3.494-8.427h.069l3.494 8.427ZM88.567 3.083h2.535c.2-.006.451.006.754.029.302.023.627.068.981.148.355.074.708.194 1.062.354.36.166.691.388 1.005.668.286.263.543.611.777 1.05.228.44.434.926.605 1.457.177.536.32 1.079.428 1.627.108.548.177 1.067.211 1.553h.446V.343H75.515v9.626h.446c.034-.486.108-1.005.217-1.553.102-.548.245-1.09.422-1.627.171-.531.377-1.017.61-1.456.23-.44.486-.788.772-1.051.314-.28.645-.502 1.004-.668.355-.16.709-.28 1.063-.354.353-.08.68-.125.982-.148.302-.023.553-.035.753-.029h2.535v17.402c.006.2-.005.451-.04.748a3.634 3.634 0 0 1-.228.925c-.12.314-.32.605-.588.862-.246.211-.531.377-.857.486a5.633 5.633 0 0 1-1.01.24c-.349.045-.674.073-.977.097l-.582.034v.445h12.812v-.445l-.583-.034a17.101 17.101 0 0 1-.97-.098 5.571 5.571 0 0 1-1.016-.24 2.541 2.541 0 0 1-.857-.485 2.456 2.456 0 0 1-.588-.862c-.12-.32-.2-.628-.228-.925a5.379 5.379 0 0 1-.04-.748V3.083ZM132.21.343h-10.277l-6.406 16.272h-.103L109.018.343H98.33v.445l.583.034c.302.017.627.052.976.097.342.046.679.126 1.01.24.326.108.611.268.857.485.268.258.468.543.588.863.119.32.199.628.228.924.034.297.046.548.04.748V19.8c.006.263-.011.582-.045.96-.035.376-.115.758-.24 1.141-.12.383-.314.708-.571.983a2.61 2.61 0 0 1-.845.53c-.337.137-.686.24-1.04.308a6.67 6.67 0 0 1-.958.12l-.583.035v.445h11.544v-.445l-.582-.034a6.67 6.67 0 0 1-.959-.12 5.566 5.566 0 0 1-1.039-.309 2.6 2.6 0 0 1-.845-.53 2.24 2.24 0 0 1-.48-.743 4 4 0 0 1-.257-.88 8.124 8.124 0 0 1-.102-.833 14.324 14.324 0 0 1-.018-.628V3.666h.103l8.153 20.656h1.576l8.153-20.656h.103v16.82c.005.2-.006.45-.04.747a3.424 3.424 0 0 1-.229.925 2.37 2.37 0 0 1-.588.862c-.245.211-.531.377-.856.486a5.62 5.62 0 0 1-1.011.24c-.348.045-.673.073-.976.097l-.582.034v.445h12.812v-.445l-.583-.034a17.233 17.233 0 0 1-.971-.098 5.415 5.415 0 0 1-1.01-.24 2.506 2.506 0 0 1-.862-.485 2.447 2.447 0 0 1-.588-.862c-.12-.32-.2-.628-.229-.925a6.42 6.42 0 0 1-.039-.748V4.18c-.006-.2.011-.45.039-.748.029-.296.109-.605.229-.925.126-.32.319-.604.588-.862.245-.217.531-.377.862-.485a5.027 5.027 0 0 1 1.01-.24c.343-.045.669-.08.971-.097l.583-.034V.343ZM144.781 0l-7.467 18.019c-.251.588-.48 1.09-.685 1.501-.206.411-.383.754-.537 1.028-.154.268-.286.486-.388.657a7.895 7.895 0 0 1-.451.656 5.495 5.495 0 0 1-.72.77 4.722 4.722 0 0 1-1.033.698c-.4.205-.862.354-1.393.445l-.651.103v.445h12.298v-.445l-.857-.069a6.611 6.611 0 0 1-1.079-.171 4.339 4.339 0 0 1-1.085-.423 2.548 2.548 0 0 1-.85-.742 2.385 2.385 0 0 1-.382-.913 3.76 3.76 0 0 1-.058-1.08c.029-.364.109-.707.235-1.021l1.301-3.186h8.77l1.541 3.768c.092.211.166.44.234.69.069.258.103.503.109.749-.006.508-.103.913-.297 1.21a1.794 1.794 0 0 1-.731.674 2.194 2.194 0 0 1-.559.222c-.217.057-.48.11-.8.149-.319.04-.713.074-1.176.108l-.514.035v.445h13.429v-.445l-.548-.034a5.391 5.391 0 0 1-1.199-.206 5.61 5.61 0 0 1-1.085-.423 3.695 3.695 0 0 1-.834-.57 3.752 3.752 0 0 1-.576-.783 13.05 13.05 0 0 1-.628-1.29c-.229-.53-.514-1.21-.851-2.038L147.694 0h-2.913Zm4.112 13.874h-7.057l3.494-8.427h.068l3.495 8.427ZM159.752.343v.445l.651.137c.416.097.845.28 1.284.542.44.263.862.565 1.267.914.406.348.766.696 1.08 1.045l7.913 8.804-6.68 7.776c-.114.143-.28.314-.485.52a25.651 25.651 0 0 1-1.37 1.261c-.217.189-.4.337-.543.445a9.464 9.464 0 0 1-1.747 1.017c-.622.28-1.239.49-1.85.628v.445h13.463v-.445l-.822-.069c-.645-.057-1.142-.131-1.496-.217a13.1 13.1 0 0 1-.697-.194 2.945 2.945 0 0 1-.69-.36 1.737 1.737 0 0 1-.537-.576c-.137-.234-.206-.526-.211-.88a2.1 2.1 0 0 1 .217-.844c.137-.297.291-.572.468-.822.177-.252.325-.452.445-.595l4.351-5.07 4.693 5.173c.245.263.474.537.691.817.216.285.399.57.536.868.137.29.206.588.211.885-.005.336-.097.616-.279.839a1.976 1.976 0 0 1-.714.53 4.174 4.174 0 0 1-1.084.344 8.92 8.92 0 0 1-1.211.137l-.993.034v.445H190v-.445a6.187 6.187 0 0 1-2.638-.993 11.427 11.427 0 0 1-1.804-1.57 60.977 60.977 0 0 1-1.827-2.028l-7.297-8.153 4.625-5.343c.331-.383.68-.789 1.045-1.223.371-.434.765-.856 1.187-1.267.418-.411.874-.782 1.365-1.108a9.168 9.168 0 0 1 1.005-.559 9.555 9.555 0 0 1 1.164-.457 7.06 7.06 0 0 1 1.188-.285l.685-.103V.343h-13.771v.445l.856.069c.629.05 1.143.142 1.542.268.4.126.708.28.925.45.252.19.434.395.537.623.103.234.154.491.149.782a2.878 2.878 0 0 1-.149.92 3.046 3.046 0 0 1-.343.708 4.963 4.963 0 0 1-.399.53l-3.426 4.009-4.864-5.413c-.183-.206-.314-.388-.383-.548a1.034 1.034 0 0 1-.097-.445c-.006-.263.057-.52.2-.771.137-.252.388-.474.759-.668.177-.08.383-.155.622-.217.24-.063.486-.114.731-.154.246-.034.468-.063.668-.074l.788-.069V.343h-13.291ZM.492 35.612c.147-.092.31-.176.487-.255.178-.077.366-.14.563-.187.2-.049.401-.072.605-.074.283 0 .531.049.743.145.213.097.377.238.496.424.117.188.178.416.18.686-.002.204-.049.393-.145.57a1.464 1.464 0 0 1-.397.46 1.902 1.902 0 0 1-.592.311 2.382 2.382 0 0 1-.731.114h-.458v.774h.47c.203 0 .406.014.61.045.204.03.398.08.582.15a1.8 1.8 0 0 1 .489.282c.143.117.256.262.338.434.084.172.125.378.127.614 0 .291-.07.55-.209.774-.14.227-.344.403-.612.532-.27.127-.596.194-.986.196a3.424 3.424 0 0 1-.656-.071 4.093 4.093 0 0 1-.616-.176 3.476 3.476 0 0 1-.51-.235l-.27.798c.308.18.64.313.993.395a4.635 4.635 0 0 0 1.924.039c.28-.055.54-.139.782-.254a2.37 2.37 0 0 0 .643-.444c.186-.182.33-.396.436-.648a2.27 2.27 0 0 0 .16-.87 1.974 1.974 0 0 0-.262-.994 1.894 1.894 0 0 0-.684-.676 2.494 2.494 0 0 0-.989-.314v-.022c.309-.073.584-.2.828-.38.245-.18.441-.403.583-.67a1.89 1.89 0 0 0 .22-.886c-.004-.41-.102-.758-.298-1.045a1.863 1.863 0 0 0-.813-.66c-.348-.153-.75-.23-1.212-.23a4 4 0 0 0-1.168.165c-.343.11-.65.252-.92.432l.27.751Zm6.358-1.209v3.333c.003.318-.004.647-.02.983a9.66 9.66 0 0 1-.087.975 4.262 4.262 0 0 1-.21.853 1.666 1.666 0 0 1-.375.614 1.62 1.62 0 0 1-.833.422l.13.821c.154-.001.304-.02.455-.056a2.555 2.555 0 0 0 .764-.32c.22-.152.401-.345.548-.578a3.21 3.21 0 0 0 .346-.791c.086-.296.15-.61.191-.941.044-.335.07-.674.083-1.024.013-.35.02-.697.017-1.041V35.26h2.605v7.05h1.032v-7.907H6.85Zm10.5 5.42.845 2.487h1.09l-2.698-7.907h-1.22L12.67 42.31h1.056l.82-2.486h2.805Zm-2.593-.797.774-2.288c.082-.242.155-.483.218-.725.064-.24.125-.477.181-.706h.024c.056.227.12.462.184.7.064.238.14.485.226.743l.787 2.276h-2.394Zm7.19 3.284h1.033v-7.038h2.417v-.869h-5.853v.869h2.404v7.038Zm7.52-8.047c-.53.002-1.018.1-1.462.295-.446.196-.831.475-1.16.839a3.865 3.865 0 0 0-.762 1.31 5.114 5.114 0 0 0-.276 1.71c.002.599.088 1.144.26 1.637.173.491.415.915.73 1.271.315.356.69.63 1.124.823.434.192.913.29 1.44.291a3.83 3.83 0 0 0 1.158-.174 3.333 3.333 0 0 0 1.803-1.354c.225-.335.401-.722.524-1.162.123-.44.186-.932.188-1.474a5.053 5.053 0 0 0-.253-1.62 3.686 3.686 0 0 0-.717-1.27 3.169 3.169 0 0 0-1.124-.827 3.616 3.616 0 0 0-1.473-.295Zm-.035.833a2.199 2.199 0 0 1 1.623.679c.202.21.37.453.503.727.133.273.232.567.299.875.064.311.098.626.098.945 0 .452-.057.876-.169 1.271a3.357 3.357 0 0 1-.49 1.044 2.38 2.38 0 0 1-.796.71c-.315.17-.675.256-1.08.26a2.31 2.31 0 0 1-.885-.17 2.27 2.27 0 0 1-.706-.472 2.758 2.758 0 0 1-.516-.706 3.64 3.64 0 0 1-.319-.88 4.823 4.823 0 0 1-.006-1.993c.067-.321.169-.622.305-.9.135-.276.305-.518.509-.727.203-.208.442-.37.713-.486.272-.117.577-.175.917-.177Zm4.059-.693 2.628 5.35a.732.732 0 0 1 .084.245.443.443 0 0 1-.049.236 4.151 4.151 0 0 1-.237.448c-.093.156-.203.3-.33.438a1.623 1.623 0 0 1-.434.332c-.163.084-.346.13-.548.131-.087 0-.161-.002-.224-.008a1.097 1.097 0 0 1-.163-.027l-.094.833c.065.023.143.041.235.053.094.011.207.017.34.017.35 0 .673-.082.966-.244.293-.164.567-.407.817-.73.141-.183.278-.39.409-.625.133-.235.26-.483.383-.747.124-.264.243-.534.356-.808.115-.275.225-.545.33-.81l1.666-4.084h-1.08l-1.242 3.356-.259.772c-.078.233-.152.45-.223.647h-.035a39.643 39.643 0 0 0-.563-1.384l-1.571-3.39H33.49Zm12.294 6.84a2.846 2.846 0 0 1-.477.174 4.638 4.638 0 0 1-1.2.154c-.64-.003-1.185-.133-1.635-.39a2.56 2.56 0 0 1-1.032-1.1c-.239-.473-.359-1.036-.36-1.689.001-.52.076-.981.22-1.386.147-.403.357-.745.626-1.023.272-.28.597-.49.974-.635.38-.145.8-.217 1.265-.217.33.002.63.033.897.094.269.06.497.139.686.234l.259-.833c-.09-.048-.221-.1-.391-.154-.17-.053-.38-.1-.626-.137a5.862 5.862 0 0 0-.86-.06 4.616 4.616 0 0 0-1.68.299c-.504.198-.938.48-1.304.845a3.76 3.76 0 0 0-.845 1.31 4.676 4.676 0 0 0-.3 1.698c.003.652.101 1.226.294 1.727.194.498.466.917.818 1.255.35.34.76.596 1.233.77.472.172.988.26 1.55.26a7.27 7.27 0 0 0 .887-.054 5.45 5.45 0 0 0 .712-.14 2.57 2.57 0 0 0 .488-.181l-.2-.821Zm2.99 1.067h1.033v-7.038h2.417v-.869h-5.854v.869h2.405v7.038Zm7.52-8.047a3.62 3.62 0 0 0-1.462.295c-.446.196-.83.475-1.16.839a3.863 3.863 0 0 0-.762 1.31 5.114 5.114 0 0 0-.276 1.71c.002.599.088 1.144.26 1.637.172.491.415.915.73 1.271.315.356.69.63 1.124.823.434.192.913.29 1.44.291.405 0 .792-.058 1.158-.174a3.336 3.336 0 0 0 1.803-1.354c.225-.335.401-.722.524-1.162.123-.44.186-.932.187-1.474a5.037 5.037 0 0 0-.252-1.62 3.68 3.68 0 0 0-.717-1.27 3.172 3.172 0 0 0-1.124-.827 3.618 3.618 0 0 0-1.473-.295Zm-.035.833a2.194 2.194 0 0 1 1.623.679c.202.21.37.453.503.727.133.273.232.567.298.875.065.311.099.626.099.945 0 .452-.057.876-.169 1.271a3.36 3.36 0 0 1-.49 1.044 2.38 2.38 0 0 1-.796.71c-.315.17-.675.256-1.08.26a2.31 2.31 0 0 1-.885-.17 2.27 2.27 0 0 1-.706-.472 2.764 2.764 0 0 1-.516-.706 3.64 3.64 0 0 1-.319-.88 4.54 4.54 0 0 1-.107-.987c0-.346.033-.682.101-1.005.067-.322.169-.623.305-.9.136-.277.305-.52.509-.728.203-.208.442-.37.714-.486.271-.117.576-.175.916-.177Zm4.927 7.19c.17.024.389.046.655.065.266.018.577.028.929.03.645 0 1.193-.059 1.642-.18.452-.121.812-.307 1.08-.559a2.061 2.061 0 0 0 .68-1.584 2.025 2.025 0 0 0-.149-.779 1.865 1.865 0 0 0-.385-.58 2.274 2.274 0 0 0-1.097-.612v-.035c.276-.1.512-.236.712-.409.199-.172.353-.37.461-.598a1.71 1.71 0 0 0 .164-.73 1.818 1.818 0 0 0-.18-.816 1.628 1.628 0 0 0-.488-.579 2.052 2.052 0 0 0-.545-.327 3.143 3.143 0 0 0-.706-.187 5.93 5.93 0 0 0-.908-.061 9.915 9.915 0 0 0-1.34.084 5.368 5.368 0 0 0-.525.092v7.766Zm1.02-7.084c.08-.02.192-.035.337-.05.144-.013.334-.02.567-.02.346-.003.649.042.905.13.259.088.46.227.602.419.143.189.216.436.217.74 0 .257-.068.486-.203.687-.135.2-.329.358-.582.473-.252.117-.558.176-.915.178h-.927v-2.557Zm0 3.32h.845c.282 0 .544.029.79.088.245.058.461.15.65.273.187.123.334.281.44.475.105.192.16.423.161.688a1.5 1.5 0 0 1-.168.725 1.29 1.29 0 0 1-.45.476 2.041 2.041 0 0 1-.648.258c-.243.053-.497.08-.763.078-.181 0-.344-.004-.485-.01a3.43 3.43 0 0 1-.371-.037v-3.015Zm10.652 2.72a2.85 2.85 0 0 1-.476.175 4.635 4.635 0 0 1-1.2.154c-.64-.003-1.186-.133-1.636-.39a2.556 2.556 0 0 1-1.032-1.1c-.238-.473-.358-1.036-.36-1.689.002-.52.076-.981.221-1.386.147-.403.356-.745.626-1.023.271-.28.596-.49.974-.635.379-.145.799-.217 1.265-.217.33.002.63.033.897.094.268.06.497.139.686.234l.258-.833c-.09-.048-.22-.1-.391-.154-.17-.053-.379-.1-.625-.137a5.861 5.861 0 0 0-.86-.06 4.617 4.617 0 0 0-1.68.299c-.505.198-.939.48-1.305.845a3.76 3.76 0 0 0-.844 1.31 4.676 4.676 0 0 0-.301 1.698c.004.652.102 1.226.295 1.727.194.498.465.917.818 1.255.35.34.76.596 1.233.77.472.172.987.26 1.549.26.322-.001.617-.02.888-.054.269-.037.508-.084.711-.14.204-.058.366-.116.489-.181l-.2-.821Zm1.49-6.839v7.907h1.02v-3.625h.33c.331 0 .617.044.855.128.237.086.44.205.607.361.165.155.306.34.422.556.117.215.22.453.309.715l.223.64c.074.218.152.431.234.641.082.207.172.403.27.584h1.091a10.795 10.795 0 0 1-.31-.713 28.076 28.076 0 0 1-.273-.743c-.09-.254-.185-.514-.285-.785a5.656 5.656 0 0 0-.33-.744 2.713 2.713 0 0 0-.436-.61 2.124 2.124 0 0 0-.607-.444 2.722 2.722 0 0 0-.844-.242l2.991-3.626h-1.22l-2.71 3.508h-.317v-3.508h-1.02Zm6.358 0v7.907h1.09l2.476-3.941c.274-.436.536-.878.79-1.326.254-.447.481-.889.676-1.326l.035.013c-.026.33-.046.66-.06.99-.014.333-.021.68-.027 1.042-.004.364-.006.757-.006 1.181v3.367h.962v-7.907h-1.02l-2.558 4.071a41.32 41.32 0 0 0-.798 1.353c-.244.433-.463.855-.657 1.263l-.035-.011c.024-.35.041-.704.054-1.06.015-.356.024-.722.032-1.099.006-.377.008-.772.008-1.184v-3.333h-.962Zm11.802 3.356h-3.062V35.26h3.25v-.857h-4.283v7.907h4.458v-.856h-3.425v-2.85h3.062v-.845Zm66.331-3.356v7.907h1.032v-3.706h3.825v3.706h1.032v-7.907h-1.032v3.309h-3.825v-3.309h-1.032Zm10.851-.14a3.62 3.62 0 0 0-1.463.295 3.37 3.37 0 0 0-1.159.839 3.855 3.855 0 0 0-.763 1.31 5.106 5.106 0 0 0-.275 1.71c.002.599.088 1.144.26 1.637.172.491.414.915.729 1.271.315.356.69.63 1.124.823.434.192.913.29 1.441.291.405 0 .792-.058 1.158-.174a3.348 3.348 0 0 0 1.802-1.355c.225-.334.402-.72.524-1.161.123-.44.186-.932.188-1.474a5.064 5.064 0 0 0-.252-1.62 3.68 3.68 0 0 0-.718-1.27 3.168 3.168 0 0 0-1.124-.827 3.613 3.613 0 0 0-1.472-.295Zm-.036.833a2.2 2.2 0 0 1 1.624.679c.201.21.369.453.502.727.133.273.233.567.299.875.064.311.098.626.098.945 0 .452-.057.876-.168 1.271a3.354 3.354 0 0 1-.491 1.044 2.377 2.377 0 0 1-.796.71c-.314.17-.674.256-1.079.26a2.302 2.302 0 0 1-.885-.17 2.26 2.26 0 0 1-.706-.472 2.754 2.754 0 0 1-.517-.706 3.627 3.627 0 0 1-.318-.88 4.81 4.81 0 0 1-.006-1.993c.066-.321.168-.622.304-.9.136-.276.306-.518.509-.727.203-.208.442-.37.714-.486.272-.117.576-.175.916-.177Zm4.294-.693 2.792 3.638a2.472 2.472 0 0 0-.796.224 1.973 1.973 0 0 0-.578.43 2.865 2.865 0 0 0-.423.614 5.995 5.995 0 0 0-.326.773 40.36 40.36 0 0 0-.246.745c-.079.25-.163.498-.251.747a8.67 8.67 0 0 1-.301.736h1.044c.086-.177.164-.375.239-.59.072-.215.143-.43.209-.65.066-.218.131-.424.197-.613.092-.272.192-.514.297-.733.108-.218.235-.403.384-.557.148-.155.332-.274.551-.357.217-.081.483-.125.798-.125h.364v3.625h.985v-3.625h.352c.315 0 .58.044.799.125.217.083.401.202.55.357.149.154.275.34.383.557.105.219.206.461.297.733.063.19.126.395.192.614.064.218.134.434.207.649.074.215.157.413.246.59h1.044a8.894 8.894 0 0 1-.289-.736 23.387 23.387 0 0 1-.242-.751 25.756 25.756 0 0 0-.243-.754 5.799 5.799 0 0 0-.328-.776 2.806 2.806 0 0 0-.429-.617 1.965 1.965 0 0 0-.586-.429 2.39 2.39 0 0 0-.803-.206l2.803-3.638h-1.184l-2.452 3.508h-.317v-3.508h-.985v3.508h-.318l-2.451-3.508h-1.185Zm10.03 0v7.907h1.091l2.475-3.941c.274-.436.536-.878.79-1.326.254-.447.481-.889.676-1.326l.035.013c-.027.33-.046.66-.06.99-.014.333-.021.68-.027 1.042-.004.364-.007.757-.007 1.181v3.367h.963v-7.907h-1.021l-2.557 4.071c-.287.468-.554.919-.798 1.353-.244.433-.463.855-.657 1.263l-.035-.011c.023-.35.041-.704.055-1.06.013-.356.023-.722.031-1.099.006-.377.008-.772.008-1.184v-3.333h-.962Z" fill="#1F1C21"/></svg><svg fill="none" viewBox="0 0 13 12" id="search" xmlns="http://www.w3.org/2000/svg"><path fill-rule="evenodd" clip-rule="evenodd" d="M4.5 8a3.5 3.5 0 1 0 0-7 3.5 3.5 0 0 0 0 7Zm0 1a4.5 4.5 0 1 0 0-9 4.5 4.5 0 0 0 0 9Z" fill="#000" fill-opacity=".5"/><path fill-rule="evenodd" clip-rule="evenodd" d="M11.655 11.618 7 7l.71-.704 4.654 4.618-.71.704Z" fill="#000" fill-opacity=".5"/></svg><svg fill="none" viewBox="0 0 17 8" id="spoller-arrow" xmlns="http://www.w3.org/2000/svg"><path d="M8.968 1.108 15.984 6.5c.447.343.447.899 0 1.242-.446.343-1.17.343-1.616 0L8.16 2.97 1.95 7.743c-.445.343-1.169.343-1.615 0-.447-.343-.447-.9 0-1.242l7.017-5.393C7.575.936 7.867.85 8.16.85c.292 0 .584.085.808.257Z" fill="#E8AA31"/></svg><svg fill="none" viewBox="0 0 22 29" id="user" xmlns="http://www.w3.org/2000/svg"><path d="M10.594 15.312h.167c1.524-.029 2.757-.619 3.667-1.747 2.003-2.487 1.67-6.748 1.634-7.155-.13-3.053-1.441-4.514-2.523-5.196-.807-.51-1.748-.785-2.8-.808h-.088c-.577 0-1.711.104-2.799.785-1.092.682-2.424 2.143-2.554 5.219-.036.407-.37 4.668 1.634 7.155.905 1.128 2.138 1.718 3.662 1.747ZM6.687 6.553c0-.017.005-.034.005-.046.172-4.107 2.82-4.548 3.954-4.548h.063c1.404.034 3.792.664 3.953 4.548 0 .017 0 .035.006.046.005.04.369 3.935-1.285 5.986-.656.814-1.53 1.215-2.68 1.226h-.052c-1.144-.011-2.023-.412-2.674-1.226-1.649-2.04-1.295-5.952-1.29-5.986Z" fill="#fff"/><path d="M21.368 22.38v-.017c0-.046-.005-.091-.005-.143-.031-1.134-.099-3.786-2.357-4.634-.015-.006-.036-.012-.052-.017-2.346-.66-4.297-2.148-4.318-2.166-.317-.246-.754-.16-.978.19-.224.349-.146.83.172 1.076.088.07 2.159 1.656 4.75 2.39 1.212.474 1.347 1.9 1.384 3.207 0 .052 0 .097.005.143.005.516-.026 1.312-.11 1.77-.842.527-4.146 2.349-9.172 2.349-5.004 0-8.329-1.827-9.177-2.354-.083-.459-.12-1.255-.11-1.77 0-.046.006-.092.006-.144.037-1.306.172-2.732 1.384-3.208 2.59-.733 4.661-2.325 4.75-2.388.317-.247.395-.728.172-1.077-.224-.35-.661-.436-.979-.19-.02.018-1.96 1.507-4.318 2.166a.613.613 0 0 0-.052.017C.105 18.434.038 21.086.007 22.214c0 .052 0 .098-.006.144v.017c-.005.298-.01 1.827.266 2.595a.723.723 0 0 0 .27.36c.156.115 3.897 2.739 10.156 2.739 6.258 0 9.999-2.63 10.155-2.738a.755.755 0 0 0 .27-.361c.26-.762.255-2.292.25-2.59Z" fill="#fff"/></svg></svg>